<svg xmlns="http://www.w3.org/2000/svg" xmlns:xlink="http://www.w3.org/1999/xlink" width="1920" zoomAndPan="magnify" viewBox="0 0 1440 809.999993" height="1080" preserveAspectRatio="xMidYMid meet" version="1.0"><defs><clipPath id="a1eec6fba0"><path d="M 595.300781 314 L 845 314 L 845 496.21875 L 595.300781 496.21875 Z M 595.300781 314 " clip-rule="nonzero"/></clipPath><clipPath id="3974551293"><path d="M 886.550781 429 L 1380 429 L 1380 752 L 886.550781 752 Z M 886.550781 429 " clip-rule="nonzero"/></clipPath></defs><rect x="-144" width="1728" fill="#ffffff" y="-80.999999" height="971.999992" fill-opacity="1"/><rect x="-144" width="1728" fill="#020200" y="-80.999999" height="971.999992" fill-opacity="1"/><g clip-path="url(#a1eec6fba0)"><path fill="#ffffff" d="M 844.148438 355.195312 C 844.148438 332.464844 825.71875 314.035156 802.988281 314.035156 C 758.875 314.035156 680.992188 314.035156 636.878906 314.035156 C 614.148438 314.035156 595.714844 332.464844 595.714844 355.195312 C 595.714844 384.152344 595.714844 426.101562 595.714844 455.054688 C 595.714844 477.789062 614.148438 496.21875 636.878906 496.21875 C 680.992188 496.21875 758.875 496.21875 802.988281 496.21875 C 825.71875 496.21875 844.148438 477.789062 844.148438 455.054688 Z M 753.554688 409.941406 L 725.578125 436.027344 C 722.398438 438.992188 717.46875 438.992188 714.285156 436.027344 L 688.238281 411.742188 L 626.988281 477.589844 C 630.015625 478.914062 633.363281 479.65625 636.878906 479.65625 C 636.878906 479.65625 802.988281 479.65625 802.988281 479.65625 C 806.574219 479.65625 809.976562 478.886719 813.046875 477.511719 Z M 615.167969 343.617188 L 676.125 400.445312 L 614.949219 466.210938 C 613.242188 462.863281 612.277344 459.074219 612.277344 455.058594 C 612.277344 455.054688 612.277344 355.195312 612.277344 355.195312 C 612.277344 351.011719 613.324219 347.066406 615.167969 343.617188 Z M 824.699219 343.617188 C 826.542969 347.066406 827.585938 351.011719 827.585938 355.195312 L 827.585938 455.054688 C 827.585938 459 826.65625 462.726562 825.007812 466.03125 L 765.675781 398.644531 Z M 812.382812 332.457031 L 719.929688 418.648438 L 627.484375 332.457031 C 630.378906 331.257812 633.550781 330.597656 636.878906 330.597656 C 636.878906 330.597656 802.988281 330.597656 802.988281 330.597656 C 806.3125 330.597656 809.488281 331.257812 812.382812 332.457031 Z M 812.382812 332.457031 " fill-opacity="1" fill-rule="evenodd"/></g><g clip-path="url(#3974551293)"><path fill="#000000" d="M 1351.777344 429.023438 L 914.40625 429.023438 C 913.488281 429.023438 912.570312 429.070312 911.65625 429.160156 C 910.746094 429.253906 909.835938 429.386719 908.9375 429.566406 C 908.039062 429.746094 907.148438 429.96875 906.269531 430.238281 C 905.390625 430.503906 904.527344 430.8125 903.679688 431.164062 C 902.832031 431.515625 902.003906 431.910156 901.195312 432.34375 C 900.386719 432.777344 899.601562 433.246094 898.835938 433.757812 C 898.074219 434.269531 897.335938 434.816406 896.628906 435.398438 C 895.917969 435.980469 895.238281 436.59375 894.589844 437.246094 C 893.941406 437.894531 893.324219 438.574219 892.742188 439.28125 C 892.160156 439.992188 891.613281 440.730469 891.105469 441.492188 C 890.59375 442.253906 890.125 443.042969 889.691406 443.851562 C 889.257812 444.660156 888.863281 445.488281 888.511719 446.335938 C 888.160156 447.183594 887.851562 448.046875 887.585938 448.925781 C 887.316406 449.804688 887.09375 450.695312 886.914062 451.59375 C 886.734375 452.496094 886.601562 453.402344 886.507812 454.316406 C 886.417969 455.230469 886.371094 456.144531 886.371094 457.0625 L 886.371094 723.707031 C 886.371094 724.625 886.417969 725.542969 886.507812 726.457031 C 886.601562 727.367188 886.734375 728.277344 886.914062 729.175781 C 887.09375 730.078125 887.316406 730.964844 887.585938 731.84375 C 887.851562 732.722656 888.160156 733.585938 888.511719 734.433594 C 888.863281 735.28125 889.257812 736.109375 889.691406 736.917969 C 890.125 737.730469 890.59375 738.515625 891.105469 739.277344 C 891.613281 740.042969 892.160156 740.777344 892.742188 741.488281 C 893.324219 742.199219 893.941406 742.875 894.589844 743.527344 C 895.238281 744.175781 895.917969 744.789062 896.628906 745.375 C 897.335938 745.957031 898.074219 746.503906 898.835938 747.011719 C 899.601562 747.523438 900.386719 747.996094 901.195312 748.425781 C 902.003906 748.859375 902.832031 749.253906 903.679688 749.605469 C 904.527344 749.957031 905.390625 750.265625 906.269531 750.535156 C 907.148438 750.800781 908.039062 751.023438 908.9375 751.203125 C 909.835938 751.382812 910.746094 751.519531 911.65625 751.609375 C 912.570312 751.699219 913.488281 751.746094 914.40625 751.746094 L 1351.777344 751.746094 C 1352.695312 751.746094 1353.609375 751.699219 1354.523438 751.609375 C 1355.4375 751.519531 1356.34375 751.382812 1357.242188 751.203125 C 1358.144531 751.023438 1359.035156 750.800781 1359.910156 750.535156 C 1360.789062 750.265625 1361.652344 749.957031 1362.5 749.605469 C 1363.347656 749.253906 1364.175781 748.863281 1364.988281 748.429688 C 1365.796875 747.996094 1366.582031 747.523438 1367.347656 747.015625 C 1368.109375 746.503906 1368.84375 745.957031 1369.554688 745.375 C 1370.265625 744.792969 1370.945312 744.175781 1371.59375 743.527344 C 1372.242188 742.878906 1372.859375 742.199219 1373.441406 741.488281 C 1374.023438 740.78125 1374.570312 740.042969 1375.078125 739.28125 C 1375.589844 738.515625 1376.0625 737.730469 1376.496094 736.921875 C 1376.925781 736.109375 1377.320312 735.28125 1377.671875 734.433594 C 1378.023438 733.585938 1378.332031 732.722656 1378.601562 731.84375 C 1378.867188 730.964844 1379.089844 730.078125 1379.269531 729.175781 C 1379.449219 728.277344 1379.585938 727.367188 1379.675781 726.457031 C 1379.765625 725.542969 1379.8125 724.625 1379.8125 723.707031 L 1379.8125 457.0625 C 1379.8125 456.144531 1379.765625 455.230469 1379.675781 454.316406 C 1379.585938 453.402344 1379.449219 452.496094 1379.269531 451.59375 C 1379.089844 450.695312 1378.867188 449.804688 1378.601562 448.925781 C 1378.332031 448.046875 1378.023438 447.183594 1377.671875 446.335938 C 1377.320312 445.488281 1376.925781 444.660156 1376.496094 443.851562 C 1376.0625 443.039062 1375.589844 442.253906 1375.078125 441.492188 C 1374.570312 440.726562 1374.023438 439.992188 1373.441406 439.28125 C 1372.859375 438.570312 1372.242188 437.890625 1371.59375 437.242188 C 1370.945312 436.59375 1370.265625 435.976562 1369.554688 435.394531 C 1368.84375 434.8125 1368.109375 434.265625 1367.347656 433.757812 C 1366.582031 433.246094 1365.796875 432.773438 1364.988281 432.339844 C 1364.175781 431.910156 1363.347656 431.515625 1362.5 431.164062 C 1361.652344 430.8125 1360.789062 430.503906 1359.910156 430.238281 C 1359.035156 429.96875 1358.144531 429.746094 1357.242188 429.566406 C 1356.34375 429.386719 1355.4375 429.25 1354.523438 429.160156 C 1353.609375 429.070312 1352.695312 429.023438 1351.777344 429.023438 Z M 1210.640625 590.386719 L 1364.625 453.089844 C 1365.050781 454.378906 1365.273438 455.703125 1365.289062 457.0625 L 1365.289062 723.707031 C 1365.273438 725.066406 1365.050781 726.390625 1364.625 727.679688 Z M 1351.761719 443.554688 C 1352.273438 443.574219 1352.785156 443.625 1353.296875 443.707031 L 1142.03125 632.0625 C 1141.421875 632.609375 1140.761719 633.097656 1140.0625 633.523438 C 1139.359375 633.949219 1138.625 634.308594 1137.859375 634.601562 C 1137.09375 634.894531 1136.304688 635.117188 1135.496094 635.265625 C 1134.691406 635.414062 1133.875 635.488281 1133.054688 635.488281 C 1132.234375 635.488281 1131.421875 635.414062 1130.613281 635.265625 C 1129.804688 635.117188 1129.019531 634.894531 1128.25 634.601562 C 1127.484375 634.308594 1126.75 633.949219 1126.046875 633.523438 C 1125.347656 633.097656 1124.691406 632.609375 1124.078125 632.0625 L 912.871094 443.707031 C 913.378906 443.628906 913.890625 443.574219 914.40625 443.554688 Z M 901.5625 727.679688 C 901.136719 726.390625 900.917969 725.066406 900.898438 723.707031 L 900.898438 457.0625 C 900.917969 455.703125 901.136719 454.378906 901.5625 453.089844 L 1055.542969 590.386719 Z M 914.40625 737.230469 C 913.890625 737.207031 913.378906 737.15625 912.871094 737.074219 L 1066.441406 600.128906 L 1114.453125 642.910156 C 1115.085938 643.476562 1115.746094 644.011719 1116.429688 644.519531 C 1117.113281 645.023438 1117.816406 645.5 1118.542969 645.941406 C 1119.273438 646.382812 1120.015625 646.789062 1120.78125 647.164062 C 1121.542969 647.539062 1122.324219 647.878906 1123.117188 648.179688 C 1123.914062 648.484375 1124.71875 648.75 1125.539062 648.980469 C 1126.359375 649.207031 1127.183594 649.398438 1128.023438 649.554688 C 1128.859375 649.707031 1129.699219 649.824219 1130.546875 649.902344 C 1131.394531 649.980469 1132.242188 650.015625 1133.09375 650.015625 C 1133.941406 650.015625 1134.792969 649.980469 1135.636719 649.902344 C 1136.484375 649.824219 1137.328125 649.707031 1138.164062 649.554688 C 1139 649.398438 1139.828125 649.207031 1140.644531 648.980469 C 1141.464844 648.75 1142.273438 648.484375 1143.066406 648.179688 C 1143.859375 647.878906 1144.640625 647.539062 1145.40625 647.164062 C 1146.167969 646.789062 1146.914062 646.382812 1147.640625 645.941406 C 1148.367188 645.5 1149.070312 645.023438 1149.753906 644.519531 C 1150.4375 644.011719 1151.097656 643.476562 1151.734375 642.910156 L 1199.730469 600.117188 L 1353.300781 737.0625 C 1352.789062 737.144531 1352.277344 737.195312 1351.765625 737.214844 Z M 914.40625 737.230469 " fill-opacity="1" fill-rule="nonzero"/></g></svg>