<svg xmlns="http://www.w3.org/2000/svg" xmlns:xlink="http://www.w3.org/1999/xlink" width="1920" zoomAndPan="magnify" viewBox="0 0 1440 809.999993" height="1080" preserveAspectRatio="xMidYMid meet" version="1.0"><defs><g/><clipPath id="aeb038e51b"><path d="M 640 183 L 648 183 L 648 192 L 640 192 Z M 640 183 " clip-rule="nonzero"/></clipPath><clipPath id="c9a5e3646b"><path d="M 397.378906 81 L 654.773438 169.699219 L 568.273438 420.714844 L 310.878906 332.015625 Z M 397.378906 81 " clip-rule="nonzero"/></clipPath><clipPath id="05aded5482"><path d="M 397.378906 81 L 654.773438 169.699219 L 568.273438 420.714844 L 310.878906 332.015625 Z M 397.378906 81 " clip-rule="nonzero"/></clipPath><clipPath id="1ac42eb65a"><path d="M 339 134 L 636 134 L 636 304 L 339 304 Z M 339 134 " clip-rule="nonzero"/></clipPath><clipPath id="7dbcc4c4e8"><path d="M 397.378906 81 L 654.773438 169.699219 L 568.273438 420.714844 L 310.878906 332.015625 Z M 397.378906 81 " clip-rule="nonzero"/></clipPath><clipPath id="a89e0c1505"><path d="M 397.378906 81 L 654.773438 169.699219 L 568.273438 420.714844 L 310.878906 332.015625 Z M 397.378906 81 " clip-rule="nonzero"/></clipPath><clipPath id="769b0e1ec1"><path d="M 332 309 L 339 309 L 339 319 L 332 319 Z M 332 309 " clip-rule="nonzero"/></clipPath><clipPath id="3a3a71caac"><path d="M 397.378906 81 L 654.773438 169.699219 L 568.273438 420.714844 L 310.878906 332.015625 Z M 397.378906 81 " clip-rule="nonzero"/></clipPath><clipPath id="9f5ccc88bd"><path d="M 397.378906 81 L 654.773438 169.699219 L 568.273438 420.714844 L 310.878906 332.015625 Z M 397.378906 81 " clip-rule="nonzero"/></clipPath><clipPath id="11579156cf"><path d="M 321 301 L 354 301 L 354 338 L 321 338 Z M 321 301 " clip-rule="nonzero"/></clipPath><clipPath id="664baa8938"><path d="M 397.378906 81 L 654.773438 169.699219 L 568.273438 420.714844 L 310.878906 332.015625 Z M 397.378906 81 " clip-rule="nonzero"/></clipPath><clipPath id="4be907be75"><path d="M 397.378906 81 L 654.773438 169.699219 L 568.273438 420.714844 L 310.878906 332.015625 Z M 397.378906 81 " clip-rule="nonzero"/></clipPath></defs><rect x="-144" width="1728" fill="#ffffff" y="-80.999999" height="971.999992" fill-opacity="1"/><rect x="-144" width="1728" fill="#020200" y="-80.999999" height="971.999992" fill-opacity="1"/><g clip-path="url(#aeb038e51b)"><g clip-path="url(#c9a5e3646b)"><g clip-path="url(#05aded5482)"><path fill="#ffffff" d="M 645.136719 191.417969 C 644.828125 191.3125 644.566406 191.136719 644.351562 190.890625 C 643.164062 189.527344 641.929688 188.171875 640.683594 186.851562 C 640.523438 186.675781 640.402344 186.472656 640.320312 186.246094 C 640.238281 186.019531 640.203125 185.789062 640.210938 185.546875 C 640.222656 185.308594 640.277344 185.078125 640.375 184.859375 C 640.476562 184.640625 640.613281 184.449219 640.789062 184.285156 C 640.960938 184.121094 641.160156 183.996094 641.382812 183.90625 C 641.609375 183.820312 641.839844 183.777344 642.078125 183.78125 C 642.320312 183.785156 642.550781 183.835938 642.769531 183.929688 C 642.992188 184.023438 643.1875 184.15625 643.355469 184.324219 C 644.632812 185.675781 645.914062 187.074219 647.121094 188.464844 C 647.394531 188.777344 647.546875 189.144531 647.570312 189.558594 C 647.597656 189.976562 647.496094 190.355469 647.261719 190.703125 C 647.027344 191.050781 646.714844 191.289062 646.320312 191.421875 C 645.921875 191.554688 645.527344 191.550781 645.132812 191.414062 Z M 645.136719 191.417969 " fill-opacity="1" fill-rule="nonzero"/></g></g></g><g clip-path="url(#1ac42eb65a)"><g clip-path="url(#7dbcc4c4e8)"><g clip-path="url(#a89e0c1505)"><path fill="#ffffff" d="M 340.902344 303.527344 C 340.804688 303.492188 340.707031 303.449219 340.613281 303.398438 C 340.398438 303.28125 340.21875 303.128906 340.066406 302.9375 C 339.914062 302.746094 339.804688 302.535156 339.738281 302.300781 C 339.671875 302.066406 339.652344 301.828125 339.679688 301.585938 C 339.707031 301.34375 339.777344 301.117188 339.898438 300.902344 C 341.6875 297.652344 343.578125 294.40625 345.515625 291.234375 C 345.644531 291.027344 345.808594 290.851562 346.003906 290.707031 C 346.203125 290.566406 346.421875 290.464844 346.660156 290.40625 C 346.894531 290.351562 347.136719 290.34375 347.375 290.378906 C 347.617188 290.417969 347.839844 290.503906 348.050781 290.628906 C 348.257812 290.757812 348.433594 290.921875 348.578125 291.117188 C 348.71875 291.316406 348.820312 291.53125 348.878906 291.769531 C 348.933594 292.007812 348.945312 292.246094 348.90625 292.488281 C 348.867188 292.730469 348.785156 292.953125 348.65625 293.160156 C 346.742188 296.277344 344.878906 299.480469 343.117188 302.679688 C 343.015625 302.871094 342.878906 303.035156 342.714844 303.179688 C 342.550781 303.320312 342.367188 303.429688 342.167969 303.507812 C 341.964844 303.585938 341.753906 303.625 341.535156 303.628906 C 341.320312 303.632812 341.109375 303.597656 340.902344 303.527344 Z M 352.484375 284.613281 C 352.210938 284.519531 351.976562 284.371094 351.773438 284.167969 C 351.570312 283.960938 351.425781 283.726562 351.335938 283.453125 C 351.246094 283.179688 351.21875 282.902344 351.257812 282.617188 C 351.296875 282.335938 351.398438 282.074219 351.558594 281.835938 C 353.644531 278.765625 355.828125 275.703125 358.054688 272.734375 C 358.199219 272.539062 358.378906 272.375 358.589844 272.25 C 358.800781 272.121094 359.027344 272.042969 359.269531 272.007812 C 359.511719 271.96875 359.75 271.984375 359.988281 272.042969 C 360.226562 272.101562 360.445312 272.207031 360.640625 272.355469 C 360.835938 272.5 360.996094 272.679688 361.121094 272.890625 C 361.246094 273.101562 361.324219 273.328125 361.359375 273.574219 C 361.394531 273.816406 361.378906 274.054688 361.316406 274.292969 C 361.253906 274.53125 361.148438 274.746094 361 274.941406 C 358.824219 277.871094 356.65625 280.878906 354.601562 283.90625 C 354.375 284.242188 354.066406 284.480469 353.679688 284.613281 C 353.292969 284.746094 352.902344 284.75 352.515625 284.621094 Z M 365.789062 266.859375 C 365.578125 266.785156 365.386719 266.679688 365.21875 266.539062 C 365.027344 266.382812 364.878906 266.195312 364.761719 265.980469 C 364.648438 265.765625 364.582031 265.535156 364.558594 265.292969 C 364.535156 265.050781 364.558594 264.8125 364.628906 264.582031 C 364.699219 264.347656 364.8125 264.136719 364.96875 263.949219 C 367.335938 261.082031 369.792969 258.234375 372.28125 255.492188 C 372.445312 255.308594 372.636719 255.167969 372.859375 255.0625 C 373.078125 254.960938 373.3125 254.902344 373.554688 254.890625 C 373.796875 254.878906 374.035156 254.910156 374.265625 254.992188 C 374.496094 255.078125 374.699219 255.199219 374.878906 255.363281 C 375.0625 255.527344 375.203125 255.71875 375.308594 255.9375 C 375.414062 256.160156 375.472656 256.390625 375.484375 256.636719 C 375.496094 256.878906 375.460938 257.113281 375.378906 257.34375 C 375.296875 257.574219 375.175781 257.78125 375.011719 257.960938 C 372.5625 260.664062 370.136719 263.464844 367.808594 266.289062 C 367.566406 266.582031 367.261719 266.785156 366.894531 266.886719 C 366.53125 266.992188 366.167969 266.984375 365.804688 266.863281 Z M 426.351562 272.566406 C 426.117188 272.5 425.902344 272.394531 425.710938 272.246094 C 425.515625 272.09375 425.359375 271.914062 425.238281 271.699219 C 425.117188 271.488281 425.042969 271.261719 425.011719 271.019531 C 424.980469 270.773438 425 270.535156 425.0625 270.300781 C 425.128906 270.0625 425.234375 269.851562 425.386719 269.65625 C 425.535156 269.464844 425.714844 269.308594 425.929688 269.1875 C 426.140625 269.066406 426.371094 268.988281 426.613281 268.957031 C 426.855469 268.929688 427.09375 268.945312 427.328125 269.011719 C 430.796875 269.734375 434.296875 269.933594 437.824219 269.617188 C 438.070312 269.59375 438.308594 269.621094 438.539062 269.691406 C 438.773438 269.761719 438.984375 269.878906 439.171875 270.03125 C 439.359375 270.1875 439.511719 270.375 439.625 270.589844 C 439.738281 270.804688 439.808594 271.035156 439.832031 271.277344 C 439.855469 271.519531 439.828125 271.757812 439.757812 271.992188 C 439.683594 272.226562 439.570312 272.4375 439.417969 272.625 C 439.261719 272.8125 439.074219 272.964844 438.859375 273.078125 C 438.644531 273.191406 438.414062 273.261719 438.171875 273.28125 C 434.277344 273.636719 430.417969 273.414062 426.59375 272.617188 C 426.496094 272.609375 426.414062 272.589844 426.351562 272.566406 Z M 415.914062 268.917969 C 415.832031 268.894531 415.753906 268.867188 415.675781 268.835938 C 412.203125 267.082031 409.03125 264.894531 406.152344 262.277344 C 405.972656 262.113281 405.832031 261.917969 405.726562 261.695312 C 405.625 261.476562 405.566406 261.242188 405.558594 260.996094 C 405.546875 260.753906 405.582031 260.515625 405.667969 260.289062 C 405.75 260.058594 405.875 259.851562 406.042969 259.671875 C 406.207031 259.492188 406.398438 259.351562 406.621094 259.25 C 406.84375 259.144531 407.074219 259.089844 407.320312 259.078125 C 407.5625 259.066406 407.800781 259.105469 408.03125 259.1875 C 408.261719 259.273438 408.464844 259.398438 408.644531 259.5625 C 411.277344 261.949219 414.179688 263.945312 417.355469 265.542969 C 417.5625 265.648438 417.742188 265.789062 417.898438 265.960938 C 418.050781 266.136719 418.167969 266.332031 418.246094 266.550781 C 418.324219 266.769531 418.363281 266.996094 418.355469 267.226562 C 418.351562 267.460938 418.300781 267.683594 418.210938 267.898438 C 418.121094 268.109375 417.996094 268.300781 417.832031 268.46875 C 417.671875 268.632812 417.484375 268.765625 417.269531 268.859375 C 417.058594 268.953125 416.835938 269.007812 416.605469 269.019531 C 416.371094 269.027344 416.144531 268.996094 415.925781 268.921875 Z M 380.707031 250.429688 C 380.558594 250.378906 380.421875 250.308594 380.292969 250.222656 C 380.160156 250.136719 380.042969 250.035156 379.941406 249.921875 C 379.835938 249.804688 379.75 249.675781 379.675781 249.539062 C 379.605469 249.402344 379.550781 249.253906 379.515625 249.105469 C 379.480469 248.953125 379.464844 248.796875 379.46875 248.644531 C 379.472656 248.488281 379.496094 248.335938 379.539062 248.183594 C 379.582031 248.035156 379.644531 247.894531 379.722656 247.757812 C 379.800781 247.625 379.894531 247.503906 380.003906 247.390625 C 382.625 244.761719 385.34375 242.15625 388.078125 239.664062 C 388.261719 239.5 388.464844 239.375 388.695312 239.289062 C 388.925781 239.207031 389.160156 239.171875 389.40625 239.183594 C 389.648438 239.195312 389.882812 239.25 390.101562 239.355469 C 390.324219 239.457031 390.515625 239.601562 390.683594 239.78125 C 390.847656 239.960938 390.96875 240.167969 391.054688 240.394531 C 391.136719 240.625 391.171875 240.863281 391.160156 241.105469 C 391.148438 241.351562 391.09375 241.582031 390.988281 241.804688 C 390.882812 242.027344 390.742188 242.21875 390.5625 242.382812 C 387.863281 244.839844 385.191406 247.402344 382.609375 249.992188 C 382.359375 250.242188 382.0625 250.40625 381.71875 250.484375 C 381.375 250.5625 381.039062 250.542969 380.707031 250.429688 Z M 399.761719 254.101562 C 399.34375 253.957031 399.023438 253.699219 398.792969 253.320312 C 396.785156 250.015625 395.207031 246.519531 394.054688 242.832031 C 393.957031 242.59375 393.910156 242.34375 393.914062 242.089844 C 393.921875 241.832031 393.976562 241.585938 394.085938 241.351562 C 394.195312 241.117188 394.347656 240.917969 394.539062 240.746094 C 394.734375 240.578125 394.953125 240.453125 395.199219 240.375 C 395.445312 240.296875 395.695312 240.273438 395.953125 240.300781 C 396.207031 240.328125 396.449219 240.40625 396.671875 240.53125 C 396.894531 240.660156 397.082031 240.828125 397.234375 241.035156 C 397.386719 241.242188 397.492188 241.472656 397.550781 241.722656 C 398.613281 245.128906 400.066406 248.355469 401.917969 251.40625 C 402.121094 251.734375 402.207031 252.09375 402.183594 252.480469 C 402.15625 252.867188 402.023438 253.214844 401.78125 253.515625 C 401.535156 253.816406 401.230469 254.023438 400.855469 254.128906 C 400.484375 254.238281 400.113281 254.226562 399.746094 254.101562 Z M 448.039062 270.351562 C 447.683594 270.226562 447.394531 270.015625 447.167969 269.71875 C 446.945312 269.421875 446.820312 269.082031 446.800781 268.710938 C 446.78125 268.335938 446.867188 267.988281 447.058594 267.667969 C 447.25 267.347656 447.515625 267.105469 447.851562 266.945312 C 448.917969 266.445312 449.949219 265.878906 450.945312 265.246094 C 452.875 264.011719 454.59375 262.53125 456.097656 260.804688 C 456.257812 260.613281 456.449219 260.460938 456.667969 260.34375 C 456.890625 260.230469 457.125 260.164062 457.375 260.144531 C 457.621094 260.125 457.863281 260.152344 458.101562 260.234375 C 458.335938 260.3125 458.550781 260.433594 458.734375 260.597656 C 458.921875 260.761719 459.070312 260.957031 459.179688 261.183594 C 459.285156 261.40625 459.34375 261.644531 459.355469 261.894531 C 459.367188 262.140625 459.332031 262.382812 459.246094 262.617188 C 459.15625 262.851562 459.027344 263.058594 458.859375 263.238281 C 457.121094 265.222656 455.140625 266.921875 452.914062 268.339844 C 451.792969 269.050781 450.628906 269.6875 449.421875 270.25 C 448.972656 270.464844 448.515625 270.492188 448.042969 270.335938 Z M 397.089844 235.472656 C 396.777344 235.363281 396.511719 235.183594 396.296875 234.933594 C 396.078125 234.679688 395.941406 234.390625 395.882812 234.0625 C 395.820312 233.734375 395.847656 233.417969 395.960938 233.105469 C 396.078125 232.792969 396.261719 232.527344 396.515625 232.316406 C 397.710938 231.328125 398.933594 230.332031 400.15625 229.363281 C 401.871094 228.007812 403.648438 226.671875 405.421875 225.4375 C 405.625 225.308594 405.839844 225.21875 406.078125 225.171875 C 406.3125 225.125 406.546875 225.125 406.785156 225.167969 C 407.019531 225.214844 407.238281 225.304688 407.4375 225.433594 C 407.640625 225.566406 407.808594 225.730469 407.945312 225.925781 C 408.082031 226.121094 408.179688 226.339844 408.230469 226.574219 C 408.285156 226.808594 408.289062 227.042969 408.25 227.277344 C 408.210938 227.515625 408.128906 227.734375 408.003906 227.941406 C 407.878906 228.144531 407.71875 228.316406 407.523438 228.460938 C 405.8125 229.648438 404.105469 230.921875 402.445312 232.242188 C 401.242188 233.199219 400.042969 234.175781 398.867188 235.148438 C 398.617188 235.355469 398.335938 235.488281 398.019531 235.542969 C 397.703125 235.601562 397.394531 235.578125 397.089844 235.472656 Z M 393.058594 233.152344 C 392.714844 233.035156 392.429688 232.835938 392.203125 232.550781 C 391.980469 232.265625 391.847656 231.9375 391.816406 231.578125 C 391.476562 227.765625 391.5 223.953125 391.890625 220.144531 C 391.90625 219.898438 391.972656 219.664062 392.085938 219.441406 C 392.199219 219.21875 392.351562 219.027344 392.542969 218.867188 C 392.730469 218.707031 392.945312 218.59375 393.183594 218.519531 C 393.421875 218.445312 393.664062 218.421875 393.910156 218.445312 C 394.15625 218.472656 394.390625 218.542969 394.609375 218.664062 C 394.828125 218.78125 395.011719 218.9375 395.167969 219.132812 C 395.320312 219.328125 395.433594 219.546875 395.5 219.785156 C 395.566406 220.023438 395.582031 220.269531 395.550781 220.515625 C 395.1875 224.089844 395.164062 227.664062 395.480469 231.242188 C 395.496094 231.398438 395.492188 231.550781 395.464844 231.699219 C 395.441406 231.851562 395.398438 232 395.339844 232.140625 C 395.277344 232.28125 395.199219 232.410156 395.105469 232.535156 C 395.011719 232.65625 394.90625 232.761719 394.785156 232.859375 C 394.664062 232.953125 394.53125 233.03125 394.390625 233.09375 C 394.25 233.15625 394.105469 233.199219 393.953125 233.226562 C 393.800781 233.25 393.648438 233.257812 393.496094 233.242188 C 393.34375 233.230469 393.195312 233.199219 393.050781 233.148438 Z M 462.476562 254.261719 L 462.4375 254.246094 C 462.207031 254.160156 462.003906 254.035156 461.824219 253.871094 C 461.644531 253.703125 461.507812 253.511719 461.40625 253.289062 C 461.300781 253.066406 461.246094 252.835938 461.238281 252.589844 C 461.230469 252.347656 461.265625 252.113281 461.351562 251.882812 C 461.429688 251.652344 461.511719 251.421875 461.589844 251.1875 C 462.667969 248.089844 463.25 244.902344 463.332031 241.625 C 463.355469 241.390625 463.417969 241.167969 463.519531 240.957031 C 463.625 240.75 463.765625 240.566406 463.941406 240.410156 C 464.117188 240.253906 464.3125 240.136719 464.535156 240.054688 C 464.753906 239.976562 464.980469 239.9375 465.214844 239.945312 C 465.449219 239.949219 465.675781 240 465.890625 240.089844 C 466.105469 240.183594 466.296875 240.3125 466.460938 240.476562 C 466.628906 240.644531 466.757812 240.832031 466.851562 241.046875 C 466.945312 241.261719 466.996094 241.488281 467.003906 241.722656 C 466.921875 245.378906 466.285156 248.941406 465.09375 252.402344 C 465.003906 252.660156 464.914062 252.917969 464.824219 253.175781 C 464.742188 253.398438 464.617188 253.601562 464.453125 253.777344 C 464.289062 253.953125 464.101562 254.09375 463.882812 254.195312 C 463.664062 254.296875 463.433594 254.355469 463.195312 254.367188 C 462.953125 254.378906 462.71875 254.34375 462.492188 254.265625 Z M 415.347656 222.921875 C 414.886719 222.765625 414.542969 222.46875 414.320312 222.035156 C 414.207031 221.820312 414.140625 221.589844 414.117188 221.347656 C 414.097656 221.101562 414.121094 220.863281 414.195312 220.632812 C 414.269531 220.398438 414.382812 220.1875 414.539062 220 C 414.695312 219.8125 414.882812 219.664062 415.097656 219.550781 C 418.46875 217.773438 421.964844 216.289062 425.585938 215.097656 C 425.820312 215.023438 426.054688 214.996094 426.300781 215.015625 C 426.542969 215.035156 426.773438 215.101562 426.992188 215.214844 C 427.207031 215.324219 427.394531 215.472656 427.554688 215.660156 C 427.710938 215.84375 427.828125 216.054688 427.902344 216.285156 C 427.976562 216.519531 428.003906 216.757812 427.984375 217 C 427.964844 217.242188 427.898438 217.472656 427.789062 217.691406 C 427.675781 217.90625 427.527344 218.09375 427.34375 218.253906 C 427.15625 218.410156 426.949219 218.527344 426.714844 218.601562 C 423.289062 219.726562 419.984375 221.128906 416.800781 222.816406 C 416.332031 223.058594 415.847656 223.09375 415.347656 222.921875 Z M 395.234375 211.191406 C 395.007812 211.113281 394.808594 211 394.628906 210.84375 C 394.449219 210.691406 394.308594 210.507812 394.199219 210.300781 C 394.089844 210.089844 394.023438 209.867188 394 209.632812 C 393.976562 209.398438 393.996094 209.167969 394.0625 208.941406 C 394.367188 207.878906 394.699219 206.828125 395.054688 205.804688 C 395.589844 204.25 396.195312 202.691406 396.835938 201.214844 C 397.261719 200.246094 397.710938 199.265625 398.179688 198.308594 C 398.28125 198.082031 398.425781 197.882812 398.609375 197.714844 C 398.789062 197.542969 399 197.417969 399.234375 197.332031 C 399.46875 197.246094 399.710938 197.210938 399.957031 197.222656 C 400.207031 197.238281 400.445312 197.300781 400.667969 197.410156 C 400.890625 197.519531 401.085938 197.667969 401.25 197.855469 C 401.414062 198.042969 401.53125 198.253906 401.609375 198.492188 C 401.6875 198.730469 401.714844 198.972656 401.695312 199.21875 C 401.671875 199.46875 401.601562 199.703125 401.488281 199.921875 C 401.042969 200.832031 400.617188 201.761719 400.210938 202.683594 C 399.601562 204.089844 399.035156 205.539062 398.53125 207.003906 C 398.199219 207.972656 397.886719 208.972656 397.601562 209.957031 C 397.53125 210.191406 397.421875 210.40625 397.269531 210.59375 C 397.121094 210.785156 396.9375 210.941406 396.722656 211.058594 C 396.511719 211.175781 396.285156 211.25 396.042969 211.277344 C 395.800781 211.304688 395.5625 211.285156 395.328125 211.21875 Z M 462.851562 232.503906 C 462.296875 232.3125 461.921875 231.941406 461.71875 231.394531 C 460.5625 228.117188 458.726562 225.277344 456.214844 222.878906 C 456.035156 222.710938 455.898438 222.515625 455.796875 222.292969 C 455.699219 222.070312 455.644531 221.835938 455.636719 221.59375 C 455.632812 221.347656 455.671875 221.113281 455.757812 220.882812 C 455.84375 220.65625 455.972656 220.453125 456.140625 220.277344 C 456.308594 220.097656 456.503906 219.960938 456.726562 219.859375 C 456.949219 219.757812 457.179688 219.707031 457.425781 219.699219 C 457.667969 219.691406 457.90625 219.730469 458.132812 219.816406 C 458.359375 219.902344 458.5625 220.03125 458.742188 220.199219 C 461.675781 223 463.824219 226.3125 465.175781 230.140625 C 465.296875 230.472656 465.320312 230.8125 465.242188 231.15625 C 465.167969 231.503906 465.007812 231.804688 464.757812 232.054688 C 464.511719 232.308594 464.214844 232.476562 463.871094 232.554688 C 463.523438 232.636719 463.183594 232.621094 462.851562 232.507812 Z M 436.417969 216.445312 C 436.214844 216.375 436.03125 216.273438 435.863281 216.140625 C 435.695312 216.007812 435.558594 215.851562 435.445312 215.667969 C 435.332031 215.488281 435.253906 215.292969 435.210938 215.082031 C 435.167969 214.875 435.160156 214.664062 435.1875 214.453125 C 435.21875 214.238281 435.28125 214.039062 435.378906 213.851562 C 435.480469 213.660156 435.609375 213.496094 435.765625 213.351562 C 435.921875 213.207031 436.097656 213.089844 436.296875 213.007812 C 436.492188 212.925781 436.695312 212.878906 436.910156 212.867188 C 440.871094 212.597656 444.742188 213.054688 448.53125 214.242188 C 448.761719 214.316406 448.972656 214.433594 449.160156 214.59375 C 449.34375 214.75 449.492188 214.9375 449.605469 215.15625 C 449.714844 215.371094 449.78125 215.601562 449.800781 215.847656 C 449.820312 216.089844 449.792969 216.328125 449.71875 216.558594 C 449.644531 216.792969 449.527344 217 449.367188 217.1875 C 449.210938 217.371094 449.023438 217.519531 448.804688 217.632812 C 448.589844 217.742188 448.359375 217.808594 448.113281 217.828125 C 447.871094 217.847656 447.632812 217.820312 447.402344 217.746094 C 444.050781 216.699219 440.625 216.296875 437.121094 216.539062 C 436.878906 216.558594 436.644531 216.53125 436.414062 216.453125 Z M 404.84375 191.292969 C 404.6875 191.238281 404.539062 191.164062 404.402344 191.070312 C 404.199219 190.933594 404.035156 190.761719 403.902344 190.554688 C 403.769531 190.351562 403.679688 190.128906 403.636719 189.890625 C 403.589844 189.648438 403.59375 189.410156 403.644531 189.171875 C 403.695312 188.933594 403.789062 188.714844 403.925781 188.511719 C 406.074219 185.398438 408.414062 182.433594 410.941406 179.621094 C 411.101562 179.4375 411.292969 179.292969 411.515625 179.1875 C 411.734375 179.082031 411.964844 179.023438 412.210938 179.007812 C 412.453125 178.996094 412.691406 179.027344 412.921875 179.109375 C 413.152344 179.191406 413.359375 179.3125 413.539062 179.476562 C 413.722656 179.636719 413.867188 179.828125 413.972656 180.050781 C 414.078125 180.269531 414.136719 180.503906 414.148438 180.746094 C 414.164062 180.988281 414.128906 181.226562 414.046875 181.457031 C 413.96875 181.6875 413.84375 181.894531 413.683594 182.074219 C 411.261719 184.773438 409.019531 187.613281 406.957031 190.597656 C 406.722656 190.9375 406.410156 191.171875 406.019531 191.300781 C 405.628906 191.429688 405.234375 191.425781 404.84375 191.292969 Z M 419.570312 174.765625 C 419.417969 174.714844 419.277344 174.640625 419.140625 174.554688 C 419.007812 174.464844 418.890625 174.359375 418.785156 174.238281 C 418.679688 174.117188 418.589844 173.984375 418.519531 173.839844 C 418.449219 173.699219 418.398438 173.546875 418.363281 173.390625 C 418.332031 173.234375 418.320312 173.074219 418.332031 172.914062 C 418.339844 172.753906 418.371094 172.597656 418.421875 172.445312 C 418.472656 172.292969 418.542969 172.152344 418.628906 172.015625 C 418.714844 171.882812 418.820312 171.761719 418.941406 171.65625 C 421.640625 169.222656 424.570312 166.824219 427.644531 164.535156 C 427.839844 164.390625 428.058594 164.292969 428.292969 164.234375 C 428.527344 164.179688 428.761719 164.167969 429.003906 164.203125 C 429.242188 164.242188 429.464844 164.320312 429.671875 164.445312 C 429.878906 164.570312 430.054688 164.730469 430.199219 164.921875 C 430.34375 165.117188 430.445312 165.328125 430.507812 165.5625 C 430.566406 165.796875 430.582031 166.035156 430.546875 166.273438 C 430.515625 166.511719 430.4375 166.738281 430.316406 166.945312 C 430.195312 167.15625 430.039062 167.332031 429.851562 167.480469 C 426.859375 169.71875 424.015625 172.046875 421.394531 174.40625 C 421.144531 174.625 420.855469 174.769531 420.53125 174.832031 C 420.203125 174.898438 419.882812 174.875 419.570312 174.765625 Z M 437.292969 161.445312 C 436.960938 161.332031 436.683594 161.136719 436.460938 160.859375 C 436.238281 160.585938 436.109375 160.273438 436.066406 159.921875 C 436.027344 159.570312 436.082031 159.234375 436.234375 158.917969 C 436.386719 158.597656 436.613281 158.34375 436.910156 158.152344 C 440.050781 156.167969 443.308594 154.269531 446.636719 152.523438 C 446.851562 152.410156 447.082031 152.339844 447.324219 152.316406 C 447.566406 152.296875 447.804688 152.320312 448.039062 152.390625 C 448.273438 152.460938 448.484375 152.578125 448.671875 152.730469 C 448.859375 152.886719 449.011719 153.074219 449.125 153.289062 C 449.238281 153.503906 449.308594 153.734375 449.332031 153.976562 C 449.355469 154.21875 449.332031 154.457031 449.257812 154.691406 C 449.1875 154.925781 449.074219 155.136719 448.917969 155.324219 C 448.761719 155.511719 448.578125 155.664062 448.359375 155.777344 C 445.132812 157.484375 441.945312 159.332031 438.882812 161.265625 C 438.375 161.582031 437.839844 161.636719 437.28125 161.429688 Z M 456.886719 151.070312 C 456.527344 150.945312 456.234375 150.730469 456.007812 150.425781 C 455.785156 150.121094 455.664062 149.78125 455.648438 149.402344 C 455.632812 149.023438 455.726562 148.675781 455.925781 148.351562 C 456.128906 148.03125 456.402344 147.796875 456.75 147.644531 C 460.148438 146.160156 463.664062 144.777344 467.199219 143.535156 C 467.429688 143.445312 467.671875 143.402344 467.921875 143.410156 C 468.171875 143.414062 468.410156 143.472656 468.636719 143.574219 C 468.863281 143.679688 469.0625 143.824219 469.230469 144.007812 C 469.398438 144.191406 469.523438 144.402344 469.605469 144.636719 C 469.6875 144.871094 469.722656 145.117188 469.707031 145.363281 C 469.691406 145.613281 469.628906 145.851562 469.515625 146.074219 C 469.402344 146.296875 469.253906 146.488281 469.0625 146.652344 C 468.871094 146.8125 468.65625 146.929688 468.417969 147.003906 C 464.972656 148.21875 461.539062 149.570312 458.222656 151.015625 C 457.777344 151.210938 457.328125 151.222656 456.871094 151.058594 Z M 477.773438 143.691406 C 477.390625 143.558594 477.085938 143.328125 476.855469 142.996094 C 476.625 142.664062 476.519531 142.296875 476.53125 141.890625 C 476.542969 141.488281 476.675781 141.128906 476.925781 140.8125 C 477.175781 140.496094 477.496094 140.28125 477.886719 140.175781 C 481.460938 139.195312 485.140625 138.328125 488.804688 137.589844 C 489.050781 137.519531 489.304688 137.5 489.558594 137.535156 C 489.8125 137.570312 490.050781 137.65625 490.269531 137.792969 C 490.488281 137.925781 490.671875 138.097656 490.820312 138.308594 C 490.964844 138.519531 491.066406 138.753906 491.113281 139.003906 C 491.164062 139.257812 491.160156 139.511719 491.105469 139.761719 C 491.046875 140.011719 490.945312 140.242188 490.792969 140.449219 C 490.640625 140.65625 490.453125 140.824219 490.230469 140.953125 C 490.007812 141.082031 489.765625 141.160156 489.511719 141.1875 C 485.929688 141.902344 482.347656 142.765625 478.832031 143.738281 C 478.476562 143.828125 478.121094 143.8125 477.773438 143.691406 Z M 499.519531 139.320312 C 499.117188 139.183594 498.796875 138.933594 498.566406 138.574219 C 498.335938 138.214844 498.242188 137.820312 498.28125 137.394531 C 498.324219 136.96875 498.496094 136.601562 498.792969 136.296875 C 499.09375 135.988281 499.453125 135.808594 499.878906 135.753906 C 503.550781 135.265625 507.3125 134.902344 511.039062 134.65625 C 511.285156 134.640625 511.523438 134.671875 511.753906 134.75 C 511.984375 134.828125 512.191406 134.945312 512.375 135.109375 C 512.5625 135.269531 512.707031 135.460938 512.816406 135.679688 C 512.921875 135.898438 512.984375 136.128906 513 136.375 C 513.015625 136.617188 512.984375 136.855469 512.90625 137.085938 C 512.828125 137.316406 512.707031 137.527344 512.546875 137.710938 C 512.386719 137.894531 512.195312 138.039062 511.976562 138.148438 C 511.757812 138.253906 511.523438 138.316406 511.28125 138.332031 C 507.632812 138.570312 503.960938 138.921875 500.359375 139.402344 C 500.070312 139.441406 499.792969 139.414062 499.519531 139.320312 Z M 633.492188 179.578125 C 633.25 179.496094 633.035156 179.371094 632.84375 179.195312 C 630.179688 176.765625 627.34375 174.386719 624.460938 172.140625 C 624.273438 171.992188 624.117188 171.808594 624 171.597656 C 623.882812 171.386719 623.808594 171.160156 623.78125 170.917969 C 623.75 170.679688 623.769531 170.441406 623.835938 170.207031 C 623.898438 169.972656 624.007812 169.761719 624.15625 169.570312 C 624.304688 169.378906 624.484375 169.222656 624.695312 169.105469 C 624.90625 168.984375 625.132812 168.90625 625.371094 168.875 C 625.613281 168.84375 625.847656 168.859375 626.082031 168.925781 C 626.316406 168.988281 626.53125 169.089844 626.722656 169.238281 C 629.675781 171.542969 632.570312 173.976562 635.316406 176.480469 C 635.472656 176.625 635.601562 176.789062 635.703125 176.976562 C 635.804688 177.164062 635.871094 177.363281 635.902344 177.574219 C 635.933594 177.78125 635.929688 177.992188 635.886719 178.203125 C 635.847656 178.410156 635.769531 178.605469 635.664062 178.789062 C 635.554688 178.972656 635.417969 179.128906 635.253906 179.265625 C 635.089844 179.402344 634.90625 179.503906 634.707031 179.578125 C 634.507812 179.648438 634.300781 179.6875 634.085938 179.6875 C 633.875 179.6875 633.667969 179.652344 633.46875 179.582031 Z M 521.648438 137.882812 C 521.445312 137.8125 521.257812 137.710938 521.085938 137.570312 C 520.917969 137.433594 520.777344 137.273438 520.664062 137.085938 C 520.554688 136.898438 520.476562 136.695312 520.4375 136.484375 C 520.398438 136.269531 520.394531 136.054688 520.429688 135.839844 C 520.46875 135.625 520.539062 135.421875 520.648438 135.230469 C 520.753906 135.042969 520.890625 134.878906 521.058594 134.738281 C 521.226562 134.597656 521.410156 134.488281 521.617188 134.414062 C 521.820312 134.339844 522.03125 134.300781 522.25 134.300781 C 525.964844 134.300781 529.734375 134.421875 533.453125 134.660156 C 533.699219 134.675781 533.929688 134.738281 534.148438 134.84375 C 534.367188 134.949219 534.558594 135.097656 534.722656 135.277344 C 534.882812 135.460938 535.003906 135.667969 535.082031 135.898438 C 535.160156 136.132812 535.195312 136.367188 535.179688 136.613281 C 535.164062 136.855469 535.101562 137.085938 534.992188 137.308594 C 534.886719 137.527344 534.742188 137.714844 534.558594 137.878906 C 534.375 138.039062 534.167969 138.160156 533.9375 138.238281 C 533.707031 138.316406 533.46875 138.347656 533.222656 138.332031 C 529.578125 138.101562 525.886719 137.984375 522.25 137.984375 C 522.042969 137.980469 521.847656 137.945312 521.652344 137.875 Z M 616.023438 165.929688 C 615.871094 165.875 615.730469 165.804688 615.597656 165.714844 C 612.589844 163.703125 609.449219 161.757812 606.273438 159.941406 C 606.054688 159.824219 605.863281 159.667969 605.707031 159.476562 C 605.550781 159.28125 605.4375 159.066406 605.367188 158.828125 C 605.296875 158.589844 605.277344 158.34375 605.304688 158.097656 C 605.335938 157.847656 605.410156 157.617188 605.535156 157.402344 C 605.660156 157.183594 605.820312 157 606.019531 156.851562 C 606.21875 156.699219 606.4375 156.59375 606.679688 156.53125 C 606.917969 156.46875 607.164062 156.457031 607.410156 156.496094 C 607.65625 156.53125 607.886719 156.617188 608.097656 156.746094 C 611.351562 158.605469 614.558594 160.59375 617.644531 162.65625 C 617.832031 162.78125 617.988281 162.933594 618.121094 163.113281 C 618.25 163.296875 618.34375 163.496094 618.402344 163.710938 C 618.460938 163.929688 618.480469 164.148438 618.457031 164.371094 C 618.4375 164.59375 618.375 164.804688 618.277344 165.007812 C 618.175781 165.207031 618.042969 165.382812 617.878906 165.539062 C 617.714844 165.691406 617.53125 165.808594 617.324219 165.894531 C 617.113281 165.976562 616.898438 166.023438 616.675781 166.03125 C 616.453125 166.035156 616.234375 166 616.023438 165.929688 Z M 543.789062 139.277344 C 543.574219 139.199219 543.382812 139.089844 543.210938 138.941406 C 543.035156 138.796875 542.894531 138.621094 542.789062 138.421875 C 542.679688 138.222656 542.609375 138.011719 542.578125 137.789062 C 542.546875 137.5625 542.558594 137.339844 542.609375 137.121094 C 542.664062 136.898438 542.753906 136.695312 542.878906 136.507812 C 543.007812 136.320312 543.164062 136.160156 543.351562 136.03125 C 543.535156 135.902344 543.738281 135.808594 543.957031 135.753906 C 544.179688 135.699219 544.402344 135.6875 544.625 135.714844 C 548.316406 136.183594 552.046875 136.78125 555.695312 137.480469 C 555.9375 137.527344 556.160156 137.617188 556.363281 137.75 C 556.570312 137.886719 556.738281 138.054688 556.878906 138.253906 C 557.015625 138.457031 557.109375 138.679688 557.160156 138.917969 C 557.207031 139.160156 557.210938 139.398438 557.164062 139.640625 C 557.117188 139.878906 557.027344 140.101562 556.890625 140.304688 C 556.757812 140.507812 556.585938 140.679688 556.382812 140.816406 C 556.179688 140.953125 555.960938 141.046875 555.71875 141.09375 C 555.480469 141.144531 555.238281 141.144531 555 141.097656 C 551.425781 140.410156 547.777344 139.824219 544.160156 139.363281 C 544.03125 139.347656 543.910156 139.320312 543.789062 139.277344 Z M 596.792969 154.921875 C 596.71875 154.902344 596.652344 154.878906 596.582031 154.847656 C 593.316406 153.269531 589.941406 151.78125 586.550781 150.402344 C 586.324219 150.3125 586.125 150.179688 585.949219 150.011719 C 585.777344 149.839844 585.640625 149.640625 585.546875 149.414062 C 585.449219 149.191406 585.402344 148.957031 585.398438 148.710938 C 585.398438 148.46875 585.441406 148.230469 585.53125 148.003906 C 585.625 147.777344 585.757812 147.578125 585.925781 147.402344 C 586.097656 147.230469 586.296875 147.09375 586.523438 147 C 586.746094 146.902344 586.980469 146.855469 587.226562 146.851562 C 587.46875 146.851562 587.707031 146.894531 587.933594 146.988281 C 591.390625 148.375 594.832031 149.90625 598.175781 151.515625 C 598.402344 151.609375 598.601562 151.742188 598.773438 151.914062 C 598.945312 152.089844 599.082031 152.285156 599.175781 152.511719 C 599.269531 152.738281 599.316406 152.972656 599.316406 153.21875 C 599.316406 153.460938 599.269531 153.699219 599.175781 153.921875 C 599.085938 154.148438 598.953125 154.347656 598.777344 154.523438 C 598.605469 154.695312 598.40625 154.828125 598.179688 154.921875 C 597.957031 155.015625 597.722656 155.0625 597.476562 155.066406 C 597.230469 155.066406 596.996094 155.019531 596.769531 154.925781 Z M 565.585938 143.476562 C 565.351562 143.40625 565.140625 143.296875 564.949219 143.140625 C 564.761719 142.984375 564.609375 142.800781 564.492188 142.585938 C 564.378906 142.371094 564.308594 142.140625 564.285156 141.898438 C 564.261719 141.65625 564.28125 141.417969 564.355469 141.183594 C 564.425781 140.949219 564.535156 140.738281 564.691406 140.550781 C 564.847656 140.359375 565.03125 140.207031 565.246094 140.09375 C 565.460938 139.976562 565.691406 139.90625 565.933594 139.882812 C 566.175781 139.859375 566.414062 139.882812 566.648438 139.953125 C 570.222656 140.882812 573.859375 141.953125 577.390625 143.117188 C 577.621094 143.191406 577.828125 143.308594 578.015625 143.46875 C 578.199219 143.628906 578.347656 143.816406 578.457031 144.035156 C 578.566406 144.253906 578.628906 144.484375 578.648438 144.726562 C 578.664062 144.972656 578.636719 145.207031 578.558594 145.441406 C 578.484375 145.671875 578.367188 145.878906 578.207031 146.066406 C 578.046875 146.25 577.859375 146.398438 577.640625 146.507812 C 577.421875 146.617188 577.191406 146.679688 576.949219 146.699219 C 576.703125 146.71875 576.46875 146.6875 576.234375 146.609375 C 572.78125 145.472656 569.238281 144.429688 565.707031 143.511719 Z M 565.585938 143.476562 " fill-opacity="1" fill-rule="nonzero"/></g></g></g><g clip-path="url(#769b0e1ec1)"><g clip-path="url(#3a3a71caac)"><g clip-path="url(#9f5ccc88bd)"><path fill="#ffffff" d="M 333.375 318.414062 C 333.316406 318.394531 333.257812 318.375 333.199219 318.351562 C 332.976562 318.25 332.785156 318.109375 332.617188 317.929688 C 332.453125 317.75 332.328125 317.546875 332.242188 317.316406 C 332.160156 317.085938 332.121094 316.851562 332.132812 316.605469 C 332.140625 316.363281 332.199219 316.128906 332.300781 315.910156 C 333.074219 314.230469 333.871094 312.558594 334.691406 310.894531 C 334.789062 310.664062 334.929688 310.460938 335.113281 310.289062 C 335.296875 310.117188 335.503906 309.988281 335.738281 309.898438 C 335.972656 309.8125 336.214844 309.773438 336.46875 309.785156 C 336.71875 309.800781 336.957031 309.859375 337.179688 309.96875 C 337.40625 310.078125 337.601562 310.226562 337.765625 310.417969 C 337.929688 310.605469 338.050781 310.820312 338.128906 311.058594 C 338.207031 311.296875 338.234375 311.542969 338.210938 311.789062 C 338.1875 312.039062 338.117188 312.277344 338 312.496094 C 337.199219 314.136719 336.402344 315.796875 335.644531 317.441406 C 335.550781 317.648438 335.421875 317.832031 335.257812 317.992188 C 335.09375 318.152344 334.90625 318.273438 334.695312 318.363281 C 334.488281 318.453125 334.269531 318.503906 334.042969 318.511719 C 333.8125 318.519531 333.589844 318.488281 333.375 318.414062 Z M 333.375 318.414062 " fill-opacity="1" fill-rule="nonzero"/></g></g></g><g clip-path="url(#11579156cf)"><g clip-path="url(#664baa8938)"><g clip-path="url(#4be907be75)"><path fill="#ffffff" d="M 325.628906 337.257812 C 326.019531 326.105469 324.820312 311.609375 321.390625 301.507812 L 335.175781 314.019531 L 353.785156 314.824219 C 344.230469 319.585938 333.1875 329.066406 325.628906 337.257812 Z M 325.628906 337.257812 " fill-opacity="1" fill-rule="nonzero"/></g></g></g><g fill="#d9d9d9" fill-opacity="1"><g transform="translate(201.11429, 431.49818)"><g><path d="M 21.53125 -29.21875 C 20.9375 -30.46875 20.179688 -31.425781 19.265625 -32.09375 C 18.347656 -32.769531 17.378906 -33.109375 16.359375 -33.109375 C 15.171875 -33.109375 14.085938 -32.6875 13.109375 -31.84375 C 12.140625 -31.007812 11.65625 -30.03125 11.65625 -28.90625 C 11.65625 -26.6875 13.769531 -24.804688 18 -23.265625 C 22.238281 -21.734375 25.179688 -20.050781 26.828125 -18.21875 C 28.484375 -16.382812 29.3125 -14.085938 29.3125 -11.328125 C 29.3125 -9.222656 28.820312 -7.253906 27.84375 -5.421875 C 26.875 -3.585938 25.375 -2.050781 23.34375 -0.8125 C 21.320312 0.425781 19.019531 1.046875 16.4375 1.046875 C 13.300781 1.046875 10.546875 0.210938 8.171875 -1.453125 C 5.796875 -3.128906 4.070312 -5.503906 3 -8.578125 L 8.75 -11.015625 C 9.71875 -8.742188 10.804688 -7.160156 12.015625 -6.265625 C 13.234375 -5.378906 14.734375 -4.9375 16.515625 -4.9375 C 18.347656 -4.9375 19.832031 -5.488281 20.96875 -6.59375 C 22.101562 -7.695312 22.671875 -9.085938 22.671875 -10.765625 C 22.671875 -12.171875 22.15625 -13.398438 21.125 -14.453125 C 20.101562 -15.503906 18.226562 -16.566406 15.5 -17.640625 C 12.78125 -18.722656 10.660156 -19.804688 9.140625 -20.890625 C 6.765625 -22.609375 5.550781 -25.085938 5.5 -28.328125 C 5.5 -31.347656 6.578125 -33.894531 8.734375 -35.96875 C 10.898438 -38.050781 13.601562 -39.09375 16.84375 -39.09375 C 18.894531 -39.09375 20.863281 -38.445312 22.75 -37.15625 C 24.632812 -35.863281 26.035156 -34.164062 26.953125 -32.0625 Z M 21.53125 -29.21875 "/></g></g></g><g fill="#d9d9d9" fill-opacity="1"><g transform="translate(233.412794, 431.49818)"><g><path d="M 13.84375 -38.046875 L 13.84375 0 L 7.359375 0 L 7.359375 -38.046875 Z M 5.984375 -52.53125 C 5.984375 -53.71875 6.457031 -54.753906 7.40625 -55.640625 C 8.351562 -56.535156 9.421875 -56.984375 10.609375 -56.984375 C 11.847656 -56.984375 12.925781 -56.535156 13.84375 -55.640625 C 14.757812 -54.753906 15.21875 -53.71875 15.21875 -52.53125 C 15.21875 -51.132812 14.757812 -49.988281 13.84375 -49.09375 C 12.925781 -48.207031 11.847656 -47.765625 10.609375 -47.765625 C 9.367188 -47.765625 8.285156 -48.195312 7.359375 -49.0625 C 6.441406 -49.925781 5.984375 -51.082031 5.984375 -52.53125 Z M 5.984375 -52.53125 "/></g></g></g><g fill="#d9d9d9" fill-opacity="1"><g transform="translate(254.621331, 431.49818)"><g><path d="M 36.59375 0 L 30.109375 0 L 30.109375 -22.1875 C 30.109375 -26.007812 29.53125 -28.785156 28.375 -30.515625 C 27.21875 -32.242188 25.125 -33.109375 22.09375 -33.109375 C 18.644531 -33.109375 16.203125 -31.921875 14.765625 -29.546875 C 13.335938 -27.171875 12.625 -23.554688 12.625 -18.703125 L 12.625 0 L 6.15625 0 L 6.15625 -38.046875 L 12.625 -38.046875 L 12.625 -33.4375 L 12.796875 -33.4375 C 14.140625 -35.269531 15.6875 -36.671875 17.4375 -37.640625 C 19.195312 -38.609375 21.265625 -39.09375 23.640625 -39.09375 C 27.898438 -39.09375 31.125 -37.785156 33.3125 -35.171875 C 35.5 -32.554688 36.59375 -28.492188 36.59375 -22.984375 Z M 36.59375 0 "/></g></g></g><g fill="#d9d9d9" fill-opacity="1"><g transform="translate(297.362204, 431.49818)"><g><path d="M 34 -32.625 L 34 -38.046875 L 40.46875 -38.046875 L 40.46875 1.375 C 40.46875 7.738281 38.6875 12.632812 35.125 16.0625 C 31.570312 19.488281 27.148438 21.203125 21.859375 21.203125 C 16.460938 21.203125 12.019531 19.597656 8.53125 16.390625 C 5.050781 13.179688 3.257812 8.957031 3.15625 3.71875 L 9.640625 3.71875 C 9.640625 7.070312 10.757812 9.828125 13 11.984375 C 15.238281 14.140625 18.191406 15.21875 21.859375 15.21875 C 25.847656 15.21875 28.867188 13.972656 30.921875 11.484375 C 32.972656 9.003906 34 4.90625 34 -0.8125 L 34 -5.265625 L 33.84375 -5.265625 C 32.332031 -3.316406 30.398438 -1.773438 28.046875 -0.640625 C 25.703125 0.484375 23.234375 1.046875 20.640625 1.046875 C 17.128906 1.046875 14 0.15625 11.25 -1.625 C 8.5 -3.40625 6.351562 -5.816406 4.8125 -8.859375 C 3.28125 -11.910156 2.515625 -15.242188 2.515625 -18.859375 C 2.515625 -22.585938 3.304688 -26 4.890625 -29.09375 C 6.484375 -32.195312 8.679688 -34.640625 11.484375 -36.421875 C 14.296875 -38.203125 17.429688 -39.09375 20.890625 -39.09375 C 23.535156 -39.09375 25.960938 -38.523438 28.171875 -37.390625 C 30.378906 -36.265625 32.269531 -34.675781 33.84375 -32.625 Z M 21.53125 -33.109375 C 19.269531 -33.109375 17.191406 -32.515625 15.296875 -31.328125 C 13.410156 -30.140625 11.910156 -28.476562 10.796875 -26.34375 C 9.691406 -24.21875 9.140625 -21.910156 9.140625 -19.421875 C 9.140625 -15.273438 10.300781 -11.820312 12.625 -9.0625 C 14.945312 -6.3125 17.941406 -4.9375 21.609375 -4.9375 C 25.441406 -4.9375 28.519531 -6.285156 30.84375 -8.984375 C 33.164062 -11.679688 34.328125 -15.132812 34.328125 -19.34375 C 34.328125 -23.394531 33.125 -26.703125 30.71875 -29.265625 C 28.320312 -31.828125 25.257812 -33.109375 21.53125 -33.109375 Z M 21.53125 -33.109375 "/></g></g></g><g fill="#d9d9d9" fill-opacity="1"><g transform="translate(344.31241, 431.49818)"><g><path d="M 12.625 -66.78125 L 12.625 -33.59375 L 12.796875 -33.4375 C 14.140625 -35.269531 15.675781 -36.671875 17.40625 -37.640625 C 19.132812 -38.609375 21.210938 -39.09375 23.640625 -39.09375 C 27.847656 -39.09375 31.054688 -37.796875 33.265625 -35.203125 C 35.484375 -32.617188 36.59375 -28.546875 36.59375 -22.984375 L 36.59375 0 L 30.109375 0 L 30.109375 -22.1875 C 30.109375 -26.007812 29.53125 -28.785156 28.375 -30.515625 C 27.21875 -32.242188 25.125 -33.109375 22.09375 -33.109375 C 18.695312 -33.109375 16.269531 -31.945312 14.8125 -29.625 C 13.351562 -27.300781 12.625 -23.6875 12.625 -18.78125 L 12.625 0 L 6.15625 0 L 6.15625 -66.78125 Z M 12.625 -66.78125 "/></g></g></g><g fill="#d9d9d9" fill-opacity="1"><g transform="translate(387.053282, 431.49818)"><g><path d="M 34.40625 -32.625 L 34.40625 -38.046875 L 40.875 -38.046875 L 40.875 0 L 34.40625 0 L 34.40625 -5.265625 L 34.25 -5.265625 C 30.894531 -1.054688 26.519531 1.046875 21.125 1.046875 C 15.84375 1.046875 11.488281 -0.894531 8.0625 -4.78125 C 4.632812 -8.664062 2.921875 -13.382812 2.921875 -18.9375 C 2.921875 -24.769531 4.644531 -29.585938 8.09375 -33.390625 C 11.550781 -37.191406 15.921875 -39.09375 21.203125 -39.09375 C 23.847656 -39.09375 26.289062 -38.523438 28.53125 -37.390625 C 30.769531 -36.265625 32.675781 -34.675781 34.25 -32.625 Z M 21.9375 -33.109375 C 18.476562 -33.109375 15.546875 -31.785156 13.140625 -29.140625 C 10.742188 -26.492188 9.546875 -23.253906 9.546875 -19.421875 C 9.546875 -15.328125 10.71875 -11.890625 13.0625 -9.109375 C 15.414062 -6.328125 18.398438 -4.9375 22.015625 -4.9375 C 25.847656 -4.9375 28.925781 -6.257812 31.25 -8.90625 C 33.570312 -11.550781 34.734375 -15.03125 34.734375 -19.34375 C 34.734375 -23.28125 33.546875 -26.554688 31.171875 -29.171875 C 28.796875 -31.796875 25.71875 -33.109375 21.9375 -33.109375 Z M 21.9375 -33.109375 "/></g></g></g><g fill="#d9d9d9" fill-opacity="1"><g transform="translate(433.760635, 431.49818)"><g><path d="M 40.875 -66.78125 L 40.875 0 L 34.40625 0 L 34.40625 -5.265625 L 34.25 -5.265625 C 32.625 -3.160156 30.691406 -1.582031 28.453125 -0.53125 C 26.210938 0.519531 23.769531 1.046875 21.125 1.046875 C 17.675781 1.046875 14.546875 0.144531 11.734375 -1.65625 C 8.929688 -3.46875 6.757812 -5.894531 5.21875 -8.9375 C 3.6875 -11.988281 2.921875 -15.320312 2.921875 -18.9375 C 2.921875 -22.664062 3.6875 -26.082031 5.21875 -29.1875 C 6.757812 -32.289062 8.929688 -34.71875 11.734375 -36.46875 C 14.546875 -38.21875 17.703125 -39.09375 21.203125 -39.09375 C 23.796875 -39.09375 26.222656 -38.523438 28.484375 -37.390625 C 30.753906 -36.265625 32.675781 -34.675781 34.25 -32.625 L 34.40625 -32.625 L 34.40625 -66.78125 Z M 21.9375 -33.109375 C 18.425781 -33.109375 15.484375 -31.769531 13.109375 -29.09375 C 10.734375 -26.425781 9.546875 -23.203125 9.546875 -19.421875 C 9.546875 -15.273438 10.707031 -11.820312 13.03125 -9.0625 C 15.351562 -6.3125 18.347656 -4.9375 22.015625 -4.9375 C 25.796875 -4.9375 28.859375 -6.257812 31.203125 -8.90625 C 33.554688 -11.550781 34.734375 -15.03125 34.734375 -19.34375 C 34.734375 -23.445312 33.53125 -26.765625 31.125 -29.296875 C 28.726562 -31.835938 25.664062 -33.109375 21.9375 -33.109375 Z M 21.9375 -33.109375 "/></g></g></g><g fill="#d9d9d9" fill-opacity="1"><g transform="translate(480.467987, 431.49818)"><g><path d="M 13.84375 -38.046875 L 13.84375 0 L 7.359375 0 L 7.359375 -38.046875 Z M 5.984375 -52.53125 C 5.984375 -53.71875 6.457031 -54.753906 7.40625 -55.640625 C 8.351562 -56.535156 9.421875 -56.984375 10.609375 -56.984375 C 11.847656 -56.984375 12.925781 -56.535156 13.84375 -55.640625 C 14.757812 -54.753906 15.21875 -53.71875 15.21875 -52.53125 C 15.21875 -51.132812 14.757812 -49.988281 13.84375 -49.09375 C 12.925781 -48.207031 11.847656 -47.765625 10.609375 -47.765625 C 9.367188 -47.765625 8.285156 -48.195312 7.359375 -49.0625 C 6.441406 -49.925781 5.984375 -51.082031 5.984375 -52.53125 Z M 5.984375 -52.53125 "/></g></g></g><g fill="#d9d9d9" fill-opacity="1"><g transform="translate(501.676523, 431.49818)"><g><path d="M 12.953125 -51.734375 L 12.953125 -38.046875 L 19.75 -38.046875 L 19.75 -32.0625 L 12.953125 -32.0625 L 12.953125 0 L 6.46875 0 L 6.46875 -32.0625 L 2.515625 -32.0625 L 2.515625 -38.046875 L 6.46875 -38.046875 L 6.46875 -51.734375 Z M 12.953125 -51.734375 "/></g></g></g><g fill="#d9d9d9" fill-opacity="1"><g transform="translate(521.104193, 431.49818)"><g><path d="M 7.359375 -38.046875 L 20.8125 -10.765625 L 33.109375 -38.046875 L 40.46875 -38.046875 L 12.390625 21.375 L 5.015625 21.375 L 17.328125 -3.5625 L -0.15625 -38.046875 Z M 7.359375 -38.046875 "/></g></g></g><g fill="#d9d9d9" fill-opacity="1"><g transform="translate(561.416599, 431.49818)"><g><path d="M 34.40625 -32.625 L 34.40625 -38.046875 L 40.875 -38.046875 L 40.875 0 L 34.40625 0 L 34.40625 -5.265625 L 34.25 -5.265625 C 30.894531 -1.054688 26.519531 1.046875 21.125 1.046875 C 15.84375 1.046875 11.488281 -0.894531 8.0625 -4.78125 C 4.632812 -8.664062 2.921875 -13.382812 2.921875 -18.9375 C 2.921875 -24.769531 4.644531 -29.585938 8.09375 -33.390625 C 11.550781 -37.191406 15.921875 -39.09375 21.203125 -39.09375 C 23.847656 -39.09375 26.289062 -38.523438 28.53125 -37.390625 C 30.769531 -36.265625 32.675781 -34.675781 34.25 -32.625 Z M 21.9375 -33.109375 C 18.476562 -33.109375 15.546875 -31.785156 13.140625 -29.140625 C 10.742188 -26.492188 9.546875 -23.253906 9.546875 -19.421875 C 9.546875 -15.328125 10.71875 -11.890625 13.0625 -9.109375 C 15.414062 -6.328125 18.398438 -4.9375 22.015625 -4.9375 C 25.847656 -4.9375 28.925781 -6.257812 31.25 -8.90625 C 33.570312 -11.550781 34.734375 -15.03125 34.734375 -19.34375 C 34.734375 -23.28125 33.546875 -26.554688 31.171875 -29.171875 C 28.796875 -31.796875 25.71875 -33.109375 21.9375 -33.109375 Z M 21.9375 -33.109375 "/></g></g></g><g fill="#d9d9d9" fill-opacity="1"><g transform="translate(608.123951, 431.49818)"><g><path d="M 29.703125 -61.03125 L 29.703125 0 L 22.90625 0 L 22.90625 -54.71875 L 12.796875 -54.71875 L 16.359375 -61.03125 Z M 29.703125 -61.03125 "/></g></g></g><g fill="#d9d9d9" fill-opacity="1"><g transform="translate(657.988312, 431.49818)"><g><path d="M 34.5625 -31.734375 C 37.476562 -30.328125 39.703125 -28.34375 41.234375 -25.78125 C 42.773438 -23.21875 43.546875 -20.316406 43.546875 -17.078125 C 43.546875 -13.835938 42.789062 -10.84375 41.28125 -8.09375 C 39.769531 -5.34375 37.582031 -3.128906 34.71875 -1.453125 C 31.863281 0.210938 28.601562 1.046875 24.9375 1.046875 C 21.695312 1.046875 18.601562 0.289062 15.65625 -1.21875 C 12.71875 -2.726562 10.425781 -4.910156 8.78125 -7.765625 C 7.132812 -10.628906 6.3125 -13.734375 6.3125 -17.078125 C 6.3125 -20.160156 7.078125 -23.019531 8.609375 -25.65625 C 10.148438 -28.300781 12.378906 -30.328125 15.296875 -31.734375 C 12.972656 -33.078125 11.148438 -34.953125 9.828125 -37.359375 C 8.515625 -39.765625 7.859375 -42.34375 7.859375 -45.09375 C 7.859375 -48.488281 8.707031 -51.519531 10.40625 -54.1875 C 12.101562 -56.863281 14.242188 -58.847656 16.828125 -60.140625 C 19.421875 -61.441406 22.125 -62.09375 24.9375 -62.09375 C 28.0625 -62.09375 30.957031 -61.335938 33.625 -59.828125 C 36.300781 -58.316406 38.367188 -56.265625 39.828125 -53.671875 C 41.285156 -51.078125 42.015625 -48.21875 42.015625 -45.09375 C 42.015625 -42.445312 41.351562 -39.894531 40.03125 -37.4375 C 38.707031 -34.976562 36.882812 -33.078125 34.5625 -31.734375 Z M 24.9375 -55.78125 C 22.070312 -55.78125 19.585938 -54.738281 17.484375 -52.65625 C 15.378906 -50.582031 14.328125 -48.113281 14.328125 -45.25 C 14.328125 -42.332031 15.351562 -39.820312 17.40625 -37.71875 C 19.457031 -35.613281 21.96875 -34.5625 24.9375 -34.5625 C 27.851562 -34.5625 30.347656 -35.613281 32.421875 -37.71875 C 34.492188 -39.820312 35.53125 -42.332031 35.53125 -45.25 C 35.53125 -48.164062 34.476562 -50.648438 32.375 -52.703125 C 30.269531 -54.753906 27.789062 -55.78125 24.9375 -55.78125 Z M 24.859375 -28.734375 C 21.773438 -28.734375 19.046875 -27.570312 16.671875 -25.25 C 14.296875 -22.9375 13.109375 -20.1875 13.109375 -17 C 13.109375 -13.757812 14.28125 -10.992188 16.625 -8.703125 C 18.976562 -6.410156 21.75 -5.265625 24.9375 -5.265625 C 28.175781 -5.265625 30.953125 -6.410156 33.265625 -8.703125 C 35.585938 -10.992188 36.75 -13.757812 36.75 -17 C 36.75 -20.238281 35.570312 -23.003906 33.21875 -25.296875 C 30.875 -27.585938 28.085938 -28.734375 24.859375 -28.734375 Z M 24.859375 -28.734375 "/></g></g></g><g fill="#d9d9d9" fill-opacity="1"><g transform="translate(707.852673, 431.49818)"><g><path d="M 37.71875 -30.59375 L 17.078125 -6.3125 L 42.828125 -6.3125 L 42.828125 0 L 3.3125 0 L 31.25 -33.03125 C 32.863281 -34.914062 34.0625 -36.722656 34.84375 -38.453125 C 35.632812 -40.179688 36.03125 -42.015625 36.03125 -43.953125 C 36.03125 -47.304688 34.851562 -50.113281 32.5 -52.375 C 30.15625 -54.644531 27.28125 -55.78125 23.875 -55.78125 C 20.425781 -55.78125 17.539062 -54.628906 15.21875 -52.328125 C 12.894531 -50.035156 11.679688 -47.003906 11.578125 -43.234375 L 4.78125 -43.234375 C 4.882812 -48.410156 6.703125 -52.847656 10.234375 -56.546875 C 13.773438 -60.242188 18.242188 -62.09375 23.640625 -62.09375 C 26.984375 -62.09375 30.113281 -61.347656 33.03125 -59.859375 C 35.945312 -58.378906 38.304688 -56.222656 40.109375 -53.390625 C 41.921875 -50.554688 42.828125 -47.4375 42.828125 -44.03125 C 42.828125 -41.070312 42.378906 -38.550781 41.484375 -36.46875 C 40.597656 -34.394531 39.34375 -32.4375 37.71875 -30.59375 Z M 37.71875 -30.59375 "/></g></g></g><g fill="#d9d9d9" fill-opacity="1"><g transform="translate(757.717034, 431.49818)"><g><path d="M 34.484375 -58.28125 L 20.40625 -39.34375 L 20.5625 -39.1875 C 21.320312 -39.457031 22.160156 -39.671875 23.078125 -39.828125 C 23.992188 -39.992188 24.9375 -40.078125 25.90625 -40.078125 C 29.46875 -40.078125 32.769531 -39.15625 35.8125 -37.3125 C 38.863281 -35.476562 41.265625 -33.007812 43.015625 -29.90625 C 44.773438 -26.800781 45.65625 -23.472656 45.65625 -19.921875 C 45.65625 -16.191406 44.707031 -12.707031 42.8125 -9.46875 C 40.925781 -6.226562 38.363281 -3.664062 35.125 -1.78125 C 31.894531 0.101562 28.390625 1.046875 24.609375 1.046875 C 20.828125 1.046875 17.300781 0.101562 14.03125 -1.78125 C 10.769531 -3.664062 8.207031 -6.210938 6.34375 -9.421875 C 4.488281 -12.640625 3.5625 -16.164062 3.5625 -20 C 3.5625 -22.644531 4.097656 -25.179688 5.171875 -27.609375 C 6.253906 -30.035156 7.550781 -32.300781 9.0625 -34.40625 L 29.390625 -62.09375 Z M 24.53125 -33.75 C 20.644531 -33.75 17.3125 -32.382812 14.53125 -29.65625 C 11.75 -26.9375 10.359375 -23.609375 10.359375 -19.671875 C 10.359375 -15.617188 11.757812 -12.203125 14.5625 -9.421875 C 17.375 -6.648438 20.722656 -5.265625 24.609375 -5.265625 C 28.546875 -5.265625 31.90625 -6.664062 34.6875 -9.46875 C 37.46875 -12.28125 38.859375 -15.679688 38.859375 -19.671875 C 38.859375 -23.609375 37.46875 -26.9375 34.6875 -29.65625 C 31.90625 -32.382812 28.519531 -33.75 24.53125 -33.75 Z M 24.53125 -33.75 "/></g></g></g><g fill="#d9d9d9" fill-opacity="1"><g transform="translate(807.581395, 431.49818)"><g><path d="M 44.84375 -12.625 C 43.445312 -12.625 42.367188 -13.054688 41.609375 -13.921875 C 40.847656 -14.785156 40.335938 -16 40.078125 -17.5625 C 38.347656 -15.832031 36.578125 -14.578125 34.765625 -13.796875 C 32.960938 -13.015625 31.0625 -12.625 29.0625 -12.625 C 25.394531 -12.625 22.210938 -14.109375 19.515625 -17.078125 C 16.816406 -20.046875 15.46875 -23.5 15.46875 -27.4375 C 15.46875 -32.675781 17.046875 -37.171875 20.203125 -40.921875 C 23.359375 -44.671875 27.28125 -46.546875 31.96875 -46.546875 C 34.019531 -46.546875 35.921875 -46.125 37.671875 -45.28125 C 39.429688 -44.445312 41.125 -42.976562 42.75 -40.875 L 43.875 -45.8125 L 49.625 -45.8125 L 45.171875 -22.984375 C 45.003906 -22.179688 44.921875 -21.425781 44.921875 -20.71875 C 44.921875 -20.019531 45.039062 -19.441406 45.28125 -18.984375 C 45.53125 -18.523438 46.003906 -18.296875 46.703125 -18.296875 C 48.003906 -18.296875 49.394531 -19.09375 50.875 -20.6875 C 52.363281 -22.28125 53.617188 -24.425781 54.640625 -27.125 C 55.671875 -29.820312 56.1875 -32.625 56.1875 -35.53125 C 56.1875 -39.632812 55.195312 -43.28125 53.21875 -46.46875 C 51.25 -49.65625 48.550781 -52.082031 45.125 -53.75 C 41.695312 -55.425781 37.851562 -56.265625 33.59375 -56.265625 C 29.007812 -56.265625 24.8125 -55.179688 21 -53.015625 C 17.195312 -50.859375 14.203125 -47.796875 12.015625 -43.828125 C 9.835938 -39.867188 8.75 -35.429688 8.75 -30.515625 C 8.75 -25.609375 9.878906 -21.179688 12.140625 -17.234375 C 14.410156 -13.296875 17.539062 -10.234375 21.53125 -8.046875 C 25.53125 -5.867188 30.035156 -4.78125 35.046875 -4.78125 C 38.335938 -4.78125 41.289062 -5.085938 43.90625 -5.703125 C 46.53125 -6.328125 48.707031 -7.257812 50.4375 -8.5 L 56.09375 -4.375 C 52.269531 -2.375 48.65625 -0.96875 45.25 -0.15625 C 41.851562 0.644531 38.238281 1.046875 34.40625 1.046875 C 28.570312 1.046875 23.238281 -0.335938 18.40625 -3.109375 C 13.582031 -5.890625 9.796875 -9.679688 7.046875 -14.484375 C 4.296875 -19.296875 2.921875 -24.640625 2.921875 -30.515625 C 2.921875 -36.296875 4.296875 -41.625 7.046875 -46.5 C 9.796875 -51.382812 13.53125 -55.203125 18.25 -57.953125 C 22.976562 -60.710938 28.175781 -62.09375 33.84375 -62.09375 C 41.664062 -62.09375 48.300781 -59.515625 53.75 -54.359375 C 59.195312 -49.203125 61.921875 -43.28125 61.921875 -36.59375 C 61.921875 -31.84375 61.113281 -27.660156 59.5 -24.046875 C 57.882812 -20.429688 55.726562 -17.625 53.03125 -15.625 C 50.332031 -13.625 47.601562 -12.625 44.84375 -12.625 Z M 40.796875 -31.96875 C 40.796875 -34.613281 40.050781 -36.785156 38.5625 -38.484375 C 37.082031 -40.191406 35.019531 -41.046875 32.375 -41.046875 C 29.351562 -41.046875 26.722656 -39.695312 24.484375 -37 C 22.242188 -34.300781 21.125 -31.304688 21.125 -28.015625 C 21.125 -25.046875 21.90625 -22.679688 23.46875 -20.921875 C 25.039062 -19.171875 27.175781 -18.296875 29.875 -18.296875 C 33.269531 -18.296875 35.9375 -19.628906 37.875 -22.296875 C 39.820312 -24.972656 40.796875 -28.195312 40.796875 -31.96875 Z M 40.796875 -31.96875 "/></g></g></g><g fill="#d9d9d9" fill-opacity="1"><g transform="translate(872.340293, 431.49818)"><g><path d="M 34 -32.625 L 34 -38.046875 L 40.46875 -38.046875 L 40.46875 1.375 C 40.46875 7.738281 38.6875 12.632812 35.125 16.0625 C 31.570312 19.488281 27.148438 21.203125 21.859375 21.203125 C 16.460938 21.203125 12.019531 19.597656 8.53125 16.390625 C 5.050781 13.179688 3.257812 8.957031 3.15625 3.71875 L 9.640625 3.71875 C 9.640625 7.070312 10.757812 9.828125 13 11.984375 C 15.238281 14.140625 18.191406 15.21875 21.859375 15.21875 C 25.847656 15.21875 28.867188 13.972656 30.921875 11.484375 C 32.972656 9.003906 34 4.90625 34 -0.8125 L 34 -5.265625 L 33.84375 -5.265625 C 32.332031 -3.316406 30.398438 -1.773438 28.046875 -0.640625 C 25.703125 0.484375 23.234375 1.046875 20.640625 1.046875 C 17.128906 1.046875 14 0.15625 11.25 -1.625 C 8.5 -3.40625 6.351562 -5.816406 4.8125 -8.859375 C 3.28125 -11.910156 2.515625 -15.242188 2.515625 -18.859375 C 2.515625 -22.585938 3.304688 -26 4.890625 -29.09375 C 6.484375 -32.195312 8.679688 -34.640625 11.484375 -36.421875 C 14.296875 -38.203125 17.429688 -39.09375 20.890625 -39.09375 C 23.535156 -39.09375 25.960938 -38.523438 28.171875 -37.390625 C 30.378906 -36.265625 32.269531 -34.675781 33.84375 -32.625 Z M 21.53125 -33.109375 C 19.269531 -33.109375 17.191406 -32.515625 15.296875 -31.328125 C 13.410156 -30.140625 11.910156 -28.476562 10.796875 -26.34375 C 9.691406 -24.21875 9.140625 -21.910156 9.140625 -19.421875 C 9.140625 -15.273438 10.300781 -11.820312 12.625 -9.0625 C 14.945312 -6.3125 17.941406 -4.9375 21.609375 -4.9375 C 25.441406 -4.9375 28.519531 -6.285156 30.84375 -8.984375 C 33.164062 -11.679688 34.328125 -15.132812 34.328125 -19.34375 C 34.328125 -23.394531 33.125 -26.703125 30.71875 -29.265625 C 28.320312 -31.828125 25.257812 -33.109375 21.53125 -33.109375 Z M 21.53125 -33.109375 "/></g></g></g><g fill="#d9d9d9" fill-opacity="1"><g transform="translate(919.290479, 431.49818)"><g><path d="M 32.46875 -32.78125 C 33.59375 -34.78125 35.164062 -36.332031 37.1875 -37.4375 C 39.21875 -38.539062 41.445312 -39.09375 43.875 -39.09375 C 47.863281 -39.09375 50.882812 -37.742188 52.9375 -35.046875 C 54.988281 -32.347656 56.015625 -28.519531 56.015625 -23.5625 L 56.015625 0 L 49.546875 0 L 49.546875 -22.578125 C 49.546875 -26.410156 48.976562 -29.125 47.84375 -30.71875 C 46.707031 -32.3125 44.953125 -33.109375 42.578125 -33.109375 C 39.773438 -33.109375 37.695312 -32.082031 36.34375 -30.03125 C 35 -27.976562 34.328125 -24.820312 34.328125 -20.5625 L 34.328125 0 L 27.84375 0 L 27.84375 -21.9375 C 27.84375 -25.820312 27.257812 -28.65625 26.09375 -30.4375 C 24.9375 -32.21875 23.253906 -33.109375 21.046875 -33.109375 C 18.296875 -33.109375 16.203125 -32.066406 14.765625 -29.984375 C 13.335938 -27.910156 12.625 -24.609375 12.625 -20.078125 L 12.625 0 L 6.15625 0 L 6.15625 -38.046875 L 12.625 -38.046875 L 12.625 -33.921875 L 12.796875 -33.921875 C 13.816406 -35.484375 15.109375 -36.734375 16.671875 -37.671875 C 18.242188 -38.617188 20 -39.09375 21.9375 -39.09375 C 24.144531 -39.09375 26.191406 -38.539062 28.078125 -37.4375 C 29.972656 -36.332031 31.4375 -34.78125 32.46875 -32.78125 Z M 32.46875 -32.78125 "/></g></g></g><g fill="#d9d9d9" fill-opacity="1"><g transform="translate(981.459021, 431.49818)"><g><path d="M 34.40625 -32.625 L 34.40625 -38.046875 L 40.875 -38.046875 L 40.875 0 L 34.40625 0 L 34.40625 -5.265625 L 34.25 -5.265625 C 30.894531 -1.054688 26.519531 1.046875 21.125 1.046875 C 15.84375 1.046875 11.488281 -0.894531 8.0625 -4.78125 C 4.632812 -8.664062 2.921875 -13.382812 2.921875 -18.9375 C 2.921875 -24.769531 4.644531 -29.585938 8.09375 -33.390625 C 11.550781 -37.191406 15.921875 -39.09375 21.203125 -39.09375 C 23.847656 -39.09375 26.289062 -38.523438 28.53125 -37.390625 C 30.769531 -36.265625 32.675781 -34.675781 34.25 -32.625 Z M 21.9375 -33.109375 C 18.476562 -33.109375 15.546875 -31.785156 13.140625 -29.140625 C 10.742188 -26.492188 9.546875 -23.253906 9.546875 -19.421875 C 9.546875 -15.328125 10.71875 -11.890625 13.0625 -9.109375 C 15.414062 -6.328125 18.398438 -4.9375 22.015625 -4.9375 C 25.847656 -4.9375 28.925781 -6.257812 31.25 -8.90625 C 33.570312 -11.550781 34.734375 -15.03125 34.734375 -19.34375 C 34.734375 -23.28125 33.546875 -26.554688 31.171875 -29.171875 C 28.796875 -31.796875 25.71875 -33.109375 21.9375 -33.109375 Z M 21.9375 -33.109375 "/></g></g></g><g fill="#d9d9d9" fill-opacity="1"><g transform="translate(1028.166373, 431.49818)"><g><path d="M 13.84375 -38.046875 L 13.84375 0 L 7.359375 0 L 7.359375 -38.046875 Z M 5.984375 -52.53125 C 5.984375 -53.71875 6.457031 -54.753906 7.40625 -55.640625 C 8.351562 -56.535156 9.421875 -56.984375 10.609375 -56.984375 C 11.847656 -56.984375 12.925781 -56.535156 13.84375 -55.640625 C 14.757812 -54.753906 15.21875 -53.71875 15.21875 -52.53125 C 15.21875 -51.132812 14.757812 -49.988281 13.84375 -49.09375 C 12.925781 -48.207031 11.847656 -47.765625 10.609375 -47.765625 C 9.367188 -47.765625 8.285156 -48.195312 7.359375 -49.0625 C 6.441406 -49.925781 5.984375 -51.082031 5.984375 -52.53125 Z M 5.984375 -52.53125 "/></g></g></g><g fill="#d9d9d9" fill-opacity="1"><g transform="translate(1049.37489, 431.49818)"><g><path d="M 12.46875 -66.78125 L 12.46875 0 L 5.984375 0 L 5.984375 -66.78125 Z M 12.46875 -66.78125 "/></g></g></g><g fill="#d9d9d9" fill-opacity="1"><g transform="translate(1067.750255, 431.49818)"><g><path d="M 12.46875 1.046875 C 11.226562 1.046875 10.160156 0.585938 9.265625 -0.328125 C 8.378906 -1.242188 7.9375 -2.320312 7.9375 -3.5625 C 7.9375 -4.75 8.378906 -5.785156 9.265625 -6.671875 C 10.160156 -7.566406 11.226562 -8.015625 12.46875 -8.015625 C 13.707031 -8.015625 14.769531 -7.566406 15.65625 -6.671875 C 16.550781 -5.785156 17 -4.75 17 -3.5625 C 17 -2.320312 16.550781 -1.242188 15.65625 -0.328125 C 14.769531 0.585938 13.707031 1.046875 12.46875 1.046875 Z M 12.46875 1.046875 "/></g></g></g><g fill="#d9d9d9" fill-opacity="1"><g transform="translate(1092.682396, 431.49818)"><g><path d="M 34.40625 -26.71875 L 34.25 -26.71875 C 32.84375 -28.601562 31.125 -30.140625 29.09375 -31.328125 C 27.070312 -32.515625 24.847656 -33.109375 22.421875 -33.109375 C 18.640625 -33.109375 15.453125 -31.734375 12.859375 -28.984375 C 10.273438 -26.234375 8.984375 -22.914062 8.984375 -19.03125 C 8.984375 -15.144531 10.222656 -11.820312 12.703125 -9.0625 C 15.191406 -6.3125 18.320312 -4.9375 22.09375 -4.9375 C 24.851562 -4.9375 27.21875 -5.515625 29.1875 -6.671875 C 31.15625 -7.835938 32.921875 -9.445312 34.484375 -11.5 L 34.640625 -11.5 L 34.640625 -2.828125 C 32.859375 -1.585938 30.96875 -0.632812 28.96875 0.03125 C 26.976562 0.707031 24.847656 1.046875 22.578125 1.046875 C 18.960938 1.046875 15.578125 0.1875 12.421875 -1.53125 C 9.265625 -3.257812 6.796875 -5.675781 5.015625 -8.78125 C 3.234375 -11.882812 2.34375 -15.300781 2.34375 -19.03125 C 2.34375 -22.53125 3.21875 -25.832031 4.96875 -28.9375 C 6.726562 -32.039062 9.195312 -34.507812 12.375 -36.34375 C 15.5625 -38.175781 18.992188 -39.09375 22.671875 -39.09375 C 24.609375 -39.09375 26.507812 -38.820312 28.375 -38.28125 C 30.238281 -37.75 32.25 -36.753906 34.40625 -35.296875 Z M 34.40625 -26.71875 "/></g></g></g><g fill="#d9d9d9" fill-opacity="1"><g transform="translate(1131.213916, 431.49818)"><g><path d="M 2.75 -18.9375 C 2.75 -22.550781 3.640625 -25.921875 5.421875 -29.046875 C 7.203125 -32.179688 9.628906 -34.640625 12.703125 -36.421875 C 15.785156 -38.203125 19.132812 -39.09375 22.75 -39.09375 C 26.363281 -39.09375 29.691406 -38.203125 32.734375 -36.421875 C 35.785156 -34.640625 38.21875 -32.195312 40.03125 -29.09375 C 41.84375 -26 42.75 -22.613281 42.75 -18.9375 C 42.75 -15.320312 41.859375 -11.960938 40.078125 -8.859375 C 38.296875 -5.753906 35.863281 -3.328125 32.78125 -1.578125 C 29.707031 0.171875 26.363281 1.046875 22.75 1.046875 C 19.132812 1.046875 15.773438 0.15625 12.671875 -1.625 C 9.566406 -3.40625 7.132812 -5.84375 5.375 -8.9375 C 3.625 -12.039062 2.75 -15.375 2.75 -18.9375 Z M 22.671875 -33.109375 C 18.835938 -33.109375 15.640625 -31.742188 13.078125 -29.015625 C 10.515625 -26.296875 9.234375 -22.96875 9.234375 -19.03125 C 9.234375 -16.113281 9.929688 -13.535156 11.328125 -11.296875 C 12.734375 -9.054688 14.445312 -7.4375 16.46875 -6.4375 C 18.5 -5.4375 20.59375 -4.9375 22.75 -4.9375 C 25.226562 -4.9375 27.492188 -5.515625 29.546875 -6.671875 C 31.597656 -7.835938 33.226562 -9.507812 34.4375 -11.6875 C 35.65625 -13.875 36.265625 -16.320312 36.265625 -19.03125 C 36.265625 -21.507812 35.710938 -23.828125 34.609375 -25.984375 C 33.503906 -28.140625 31.898438 -29.863281 29.796875 -31.15625 C 27.691406 -32.457031 25.316406 -33.109375 22.671875 -33.109375 Z M 22.671875 -33.109375 "/></g></g></g><g fill="#d9d9d9" fill-opacity="1"><g transform="translate(1176.707014, 431.49818)"><g><path d="M 32.46875 -32.78125 C 33.59375 -34.78125 35.164062 -36.332031 37.1875 -37.4375 C 39.21875 -38.539062 41.445312 -39.09375 43.875 -39.09375 C 47.863281 -39.09375 50.882812 -37.742188 52.9375 -35.046875 C 54.988281 -32.347656 56.015625 -28.519531 56.015625 -23.5625 L 56.015625 0 L 49.546875 0 L 49.546875 -22.578125 C 49.546875 -26.410156 48.976562 -29.125 47.84375 -30.71875 C 46.707031 -32.3125 44.953125 -33.109375 42.578125 -33.109375 C 39.773438 -33.109375 37.695312 -32.082031 36.34375 -30.03125 C 35 -27.976562 34.328125 -24.820312 34.328125 -20.5625 L 34.328125 0 L 27.84375 0 L 27.84375 -21.9375 C 27.84375 -25.820312 27.257812 -28.65625 26.09375 -30.4375 C 24.9375 -32.21875 23.253906 -33.109375 21.046875 -33.109375 C 18.296875 -33.109375 16.203125 -32.066406 14.765625 -29.984375 C 13.335938 -27.910156 12.625 -24.609375 12.625 -20.078125 L 12.625 0 L 6.15625 0 L 6.15625 -38.046875 L 12.625 -38.046875 L 12.625 -33.921875 L 12.796875 -33.921875 C 13.816406 -35.484375 15.109375 -36.734375 16.671875 -37.671875 C 18.242188 -38.617188 20 -39.09375 21.9375 -39.09375 C 24.144531 -39.09375 26.191406 -38.539062 28.078125 -37.4375 C 29.972656 -36.332031 31.4375 -34.78125 32.46875 -32.78125 Z M 32.46875 -32.78125 "/></g></g></g></svg>